<svg xmlns="http://www.w3.org/2000/svg" viewBox="0 0 380 320">
  <rect x="100" y="20" width="180" height="280" fill="#fcf5a3" stroke="black" stroke-width="3"/>
  <line x1="85" y1="50" x2="100" y2="50" stroke="black" stroke-width="4"/>
  <text x="110" y="55" font-family="sans-serif" font-size="16">clk</text>
  <line x1="85" y1="75" x2="100" y2="75" stroke="black" stroke-width="4"/>
  <text x="110" y="80" font-family="sans-serif" font-size="16">rst_n</text>
  <line x1="85" y1="100" x2="100" y2="100" stroke="black" stroke-width="4"/>
  <text x="80" y="104" font-family="monospace" font-size="14" text-anchor="end">[3:0]</text>
  <text x="110" y="105" font-family="sans-serif" font-size="16">a00</text>
  <line x1="85" y1="125" x2="100" y2="125" stroke="black" stroke-width="4"/>
  <text x="80" y="129" font-family="monospace" font-size="14" text-anchor="end">[3:0]</text>
  <text x="110" y="130" font-family="sans-serif" font-size="16">a01</text>
  <line x1="85" y1="150" x2="100" y2="150" stroke="black" stroke-width="4"/>
  <text x="80" y="154" font-family="monospace" font-size="14" text-anchor="end">[3:0]</text>
  <text x="110" y="155" font-family="sans-serif" font-size="16">a10</text>
  <line x1="85" y1="175" x2="100" y2="175" stroke="black" stroke-width="4"/>
  <text x="80" y="179" font-family="monospace" font-size="14" text-anchor="end">[3:0]</text>
  <text x="110" y="180" font-family="sans-serif" font-size="16">a11</text>
  <line x1="85" y1="200" x2="100" y2="200" stroke="black" stroke-width="4"/>
  <text x="80" y="204" font-family="monospace" font-size="14" text-anchor="end">[3:0]</text>
  <text x="110" y="205" font-family="sans-serif" font-size="16">b00</text>
  <line x1="85" y1="225" x2="100" y2="225" stroke="black" stroke-width="4"/>
  <text x="80" y="229" font-family="monospace" font-size="14" text-anchor="end">[3:0]</text>
  <text x="110" y="230" font-family="sans-serif" font-size="16">b01</text>
  <line x1="85" y1="250" x2="100" y2="250" stroke="black" stroke-width="4"/>
  <text x="80" y="254" font-family="monospace" font-size="14" text-anchor="end">[3:0]</text>
  <text x="110" y="255" font-family="sans-serif" font-size="16">b10</text>
  <line x1="85" y1="275" x2="100" y2="275" stroke="black" stroke-width="4"/>
  <text x="80" y="279" font-family="monospace" font-size="14" text-anchor="end">[3:0]</text>
  <text x="110" y="280" font-family="sans-serif" font-size="16">b11</text>
  <line x1="280" y1="50" x2="295" y2="50" stroke="black" stroke-width="4"/>
  <text x="300" y="54" font-family="monospace" font-size="14" text-anchor="start">[8:0]</text>
  <text x="270" y="55" font-family="sans-serif" font-size="16" text-anchor="end">c00</text>
  <line x1="280" y1="75" x2="295" y2="75" stroke="black" stroke-width="4"/>
  <text x="300" y="79" font-family="monospace" font-size="14" text-anchor="start">[8:0]</text>
  <text x="270" y="80" font-family="sans-serif" font-size="16" text-anchor="end">c01</text>
  <line x1="280" y1="100" x2="295" y2="100" stroke="black" stroke-width="4"/>
  <text x="300" y="104" font-family="monospace" font-size="14" text-anchor="start">[8:0]</text>
  <text x="270" y="105" font-family="sans-serif" font-size="16" text-anchor="end">c10</text>
  <line x1="280" y1="125" x2="295" y2="125" stroke="black" stroke-width="4"/>
  <text x="300" y="129" font-family="monospace" font-size="14" text-anchor="start">[8:0]</text>
  <text x="270" y="130" font-family="sans-serif" font-size="16" text-anchor="end">c11</text>
</svg>