<svg xmlns="http://www.w3.org/2000/svg" xmlns:xlink="http://www.w3.org/1999/xlink" xmlns:s="https://github.com/nturley/netlistsvg" width="902" height="849.5">
  <style>svg {
    stroke:#000;
    fill:none;
  }
  text {
    fill:#000;
    stroke:none;
    font-size:10px;
    font-weight: bold;
    font-family: "Courier New", monospace;
  }
  .nodelabel {
    text-anchor: middle;
  }
  .inputPortLabel {
    text-anchor: end;
  }
  .splitjoinBody {
    fill:#000;
  }</style>
  <g s:type="add" transform="translate(80.33333333333333,571.5)" s:width="25" s:height="25" id="cell_$add$rtl/systolic2x2.v:26$3">
    <s:alias val="$add"/>
    <circle r="12.5" cx="12.5" cy="12.5" class="cell_$add$rtl/systolic2x2.v:26$3"/>
    <line x1="7.5" x2="17.5" y1="12.5" y2="12.5" class="cell_$add$rtl/systolic2x2.v:26$3"/>
    <line x1="12.5" x2="12.5" y1="7.5" y2="17.5" class="cell_$add$rtl/systolic2x2.v:26$3"/>
    <g s:x="3" s:y="5" s:pid="A"/>
    <g s:x="3" s:y="20" s:pid="B"/>
    <g s:x="25" s:y="12.5" s:pid="Y"/>
  </g>
  <g s:type="dff" transform="translate(207,526.5)" s:width="30" s:height="40" id="cell_$procdff$42">
    <s:alias val="$dff"/>
    <s:alias val="$_DFF_"/>
    <s:alias val="$_DFF_P_"/>
    <rect width="30" height="40" x="0" y="0" class="cell_$procdff$42"/>
    <path d="M0,35 L5,30 L0,25" class="cell_$procdff$42"/>
    <g s:x="30" s:y="10" s:pid="Q"/>
    <g s:x="0" s:y="30" s:pid="CLK"/>
    <g s:x="0" s:y="30" s:pid="C"/>
    <g s:x="0" s:y="10" s:pid="D"/>
  </g>
  <g s:type="mux" transform="translate(517.6666666666667,269.5)" s:width="20" s:height="40" id="cell_$procmux$19">
    <s:alias val="$pmux"/>
    <s:alias val="$mux"/>
    <s:alias val="$_MUX_"/>
    <path d="M0,0 L20,10 L20,30 L0,40 Z" class="cell_$procmux$19"/>
    <g s:x="0" s:y="10" s:pid="A"/>
    <g s:x="0" s:y="30" s:pid="B"/>
    <g s:x="10" s:y="35" s:pid="S"/>
    <g s:x="20" s:y="20" s:pid="Y"/>
  </g>
  <g s:type="eq" transform="translate(357,60)" s:width="25" s:height="25" id="cell_$procmux$20_CMP0">
    <s:alias val="$eq"/>
    <circle r="12.5" cx="12.5" cy="12.5" class="cell_$procmux$20_CMP0"/>
    <line x1="7.5" x2="17.5" y1="10" y2="10" class="cell_$procmux$20_CMP0"/>
    <line x1="7.5" x2="17.5" y1="15" y2="15" class="cell_$procmux$20_CMP0"/>
    <g s:x="3" s:y="5" s:pid="A"/>
    <g s:x="3" s:y="20" s:pid="B"/>
    <g s:x="25" s:y="12.5" s:pid="Y"/>
  </g>
  <g s:type="eq" transform="translate(273.6666666666667,531.5)" s:width="25" s:height="25" id="cell_$procmux$21_CMP0">
    <s:alias val="$eq"/>
    <circle r="12.5" cx="12.5" cy="12.5" class="cell_$procmux$21_CMP0"/>
    <line x1="7.5" x2="17.5" y1="10" y2="10" class="cell_$procmux$21_CMP0"/>
    <line x1="7.5" x2="17.5" y1="15" y2="15" class="cell_$procmux$21_CMP0"/>
    <g s:x="3" s:y="5" s:pid="A"/>
    <g s:x="3" s:y="20" s:pid="B"/>
    <g s:x="25" s:y="12.5" s:pid="Y"/>
  </g>
  <g s:type="mux" transform="translate(517.6666666666667,32.5)" s:width="20" s:height="40" id="cell_$procmux$23">
    <s:alias val="$pmux"/>
    <s:alias val="$mux"/>
    <s:alias val="$_MUX_"/>
    <path d="M0,0 L20,10 L20,30 L0,40 Z" class="cell_$procmux$23"/>
    <g s:x="0" s:y="10" s:pid="A"/>
    <g s:x="0" s:y="30" s:pid="B"/>
    <g s:x="10" s:y="35" s:pid="S"/>
    <g s:x="20" s:y="20" s:pid="Y"/>
  </g>
  <g s:type="mux" transform="translate(427,447)" s:width="20" s:height="40" id="cell_$procmux$28">
    <s:alias val="$pmux"/>
    <s:alias val="$mux"/>
    <s:alias val="$_MUX_"/>
    <path d="M0,0 L20,10 L20,30 L0,40 Z" class="cell_$procmux$28"/>
    <g s:x="0" s:y="10" s:pid="A"/>
    <g s:x="0" s:y="30" s:pid="B"/>
    <g s:x="10" s:y="35" s:pid="S"/>
    <g s:x="20" s:y="20" s:pid="Y"/>
  </g>
  <g s:type="eq" transform="translate(273.6666666666667,656.5)" s:width="25" s:height="25" id="cell_$procmux$30_CMP0">
    <s:alias val="$eq"/>
    <circle r="12.5" cx="12.5" cy="12.5" class="cell_$procmux$30_CMP0"/>
    <line x1="7.5" x2="17.5" y1="10" y2="10" class="cell_$procmux$30_CMP0"/>
    <line x1="7.5" x2="17.5" y1="15" y2="15" class="cell_$procmux$30_CMP0"/>
    <g s:x="3" s:y="5" s:pid="A"/>
    <g s:x="3" s:y="20" s:pid="B"/>
    <g s:x="25" s:y="12.5" s:pid="Y"/>
  </g>
  <g s:type="mux" transform="translate(427,564)" s:width="20" s:height="40" id="cell_$procmux$33">
    <s:alias val="$pmux"/>
    <s:alias val="$mux"/>
    <s:alias val="$_MUX_"/>
    <path d="M0,0 L20,10 L20,30 L0,40 Z" class="cell_$procmux$33"/>
    <g s:x="0" s:y="10" s:pid="A"/>
    <g s:x="0" s:y="30" s:pid="B"/>
    <g s:x="10" s:y="35" s:pid="S"/>
    <g s:x="20" s:y="20" s:pid="Y"/>
  </g>
  <g s:type="mux" transform="translate(145.33333333333334,516.5)" s:width="20" s:height="40" id="cell_$procmux$37">
    <s:alias val="$pmux"/>
    <s:alias val="$mux"/>
    <s:alias val="$_MUX_"/>
    <path d="M0,0 L20,10 L20,30 L0,40 Z" class="cell_$procmux$37"/>
    <g s:x="0" s:y="10" s:pid="A"/>
    <g s:x="0" s:y="30" s:pid="B"/>
    <g s:x="10" s:y="35" s:pid="S"/>
    <g s:x="20" s:y="20" s:pid="Y"/>
  </g>
  <g s:type="generic" transform="translate(518,641)" s:width="30" s:height="40" id="cell_pe00">
    <text x="15" y="-4" class="nodelabel cell_pe00" s:attribute="ref">pe</text>
    <rect width="30" height="80" s:generic="body" class="cell_pe00"/>
    <g transform="translate(0,10)" s:x="0" s:y="10" s:pid="in0" id="port_pe00~a">
      <text x="-3" y="-4" class="inputPortLabel cell_pe00">a</text>
    </g>
    <g transform="translate(0,30)" s:x="0" s:y="10" s:pid="in0" id="port_pe00~b">
      <text x="-3" y="-4" class="inputPortLabel cell_pe00">b</text>
    </g>
    <g transform="translate(0,50)" s:x="0" s:y="10" s:pid="in0" id="port_pe00~clk">
      <text x="-3" y="-4" class="inputPortLabel cell_pe00">clk</text>
    </g>
    <g transform="translate(0,70)" s:x="0" s:y="10" s:pid="in0" id="port_pe00~rst_n">
      <text x="-3" y="-4" class="inputPortLabel cell_pe00">rst_n</text>
    </g>
    <g transform="translate(30,10)" s:x="30" s:y="10" s:pid="out0" id="port_pe00~a_p">
      <text x="5" y="-4" style="fill:#000; stroke:none" class="cell_pe00">a_p</text>
    </g>
    <g transform="translate(30,30)" s:x="30" s:y="10" s:pid="out0" id="port_pe00~b_p">
      <text x="5" y="-4" style="fill:#000; stroke:none" class="cell_pe00">b_p</text>
    </g>
    <g transform="translate(30,50)" s:x="30" s:y="10" s:pid="out0" id="port_pe00~c">
      <text x="5" y="-4" style="fill:#000; stroke:none" class="cell_pe00">c</text>
    </g>
  </g>
  <g s:type="generic" transform="translate(659,22)" s:width="30" s:height="40" id="cell_pe01">
    <text x="15" y="-4" class="nodelabel cell_pe01" s:attribute="ref">pe</text>
    <rect width="30" height="80" s:generic="body" class="cell_pe01"/>
    <g transform="translate(0,10)" s:x="0" s:y="10" s:pid="in0" id="port_pe01~a">
      <text x="-3" y="-4" class="inputPortLabel cell_pe01">a</text>
    </g>
    <g transform="translate(0,30)" s:x="0" s:y="10" s:pid="in0" id="port_pe01~b">
      <text x="-3" y="-4" class="inputPortLabel cell_pe01">b</text>
    </g>
    <g transform="translate(0,50)" s:x="0" s:y="10" s:pid="in0" id="port_pe01~clk">
      <text x="-3" y="-4" class="inputPortLabel cell_pe01">clk</text>
    </g>
    <g transform="translate(0,70)" s:x="0" s:y="10" s:pid="in0" id="port_pe01~rst_n">
      <text x="-3" y="-4" class="inputPortLabel cell_pe01">rst_n</text>
    </g>
    <g transform="translate(30,10)" s:x="30" s:y="10" s:pid="out0" id="port_pe01~a_p">
      <text x="5" y="-4" style="fill:#000; stroke:none" class="cell_pe01">a_p</text>
    </g>
    <g transform="translate(30,30)" s:x="30" s:y="10" s:pid="out0" id="port_pe01~b_p">
      <text x="5" y="-4" style="fill:#000; stroke:none" class="cell_pe01">b_p</text>
    </g>
    <g transform="translate(30,50)" s:x="30" s:y="10" s:pid="out0" id="port_pe01~c">
      <text x="5" y="-4" style="fill:#000; stroke:none" class="cell_pe01">c</text>
    </g>
  </g>
  <g s:type="generic" transform="translate(659,279)" s:width="30" s:height="40" id="cell_pe10">
    <text x="15" y="-4" class="nodelabel cell_pe10" s:attribute="ref">pe</text>
    <rect width="30" height="80" s:generic="body" class="cell_pe10"/>
    <g transform="translate(0,10)" s:x="0" s:y="10" s:pid="in0" id="port_pe10~a">
      <text x="-3" y="-4" class="inputPortLabel cell_pe10">a</text>
    </g>
    <g transform="translate(0,30)" s:x="0" s:y="10" s:pid="in0" id="port_pe10~b">
      <text x="-3" y="-4" class="inputPortLabel cell_pe10">b</text>
    </g>
    <g transform="translate(0,50)" s:x="0" s:y="10" s:pid="in0" id="port_pe10~clk">
      <text x="-3" y="-4" class="inputPortLabel cell_pe10">clk</text>
    </g>
    <g transform="translate(0,70)" s:x="0" s:y="10" s:pid="in0" id="port_pe10~rst_n">
      <text x="-3" y="-4" class="inputPortLabel cell_pe10">rst_n</text>
    </g>
    <g transform="translate(30,10)" s:x="30" s:y="10" s:pid="out0" id="port_pe10~a_p">
      <text x="5" y="-4" style="fill:#000; stroke:none" class="cell_pe10">a_p</text>
    </g>
    <g transform="translate(30,30)" s:x="30" s:y="10" s:pid="out0" id="port_pe10~b_p">
      <text x="5" y="-4" style="fill:#000; stroke:none" class="cell_pe10">b_p</text>
    </g>
    <g transform="translate(30,50)" s:x="30" s:y="10" s:pid="out0" id="port_pe10~c">
      <text x="5" y="-4" style="fill:#000; stroke:none" class="cell_pe10">c</text>
    </g>
  </g>
  <g s:type="generic" transform="translate(775,350.5)" s:width="30" s:height="40" id="cell_pe11">
    <text x="15" y="-4" class="nodelabel cell_pe11" s:attribute="ref">pe</text>
    <rect width="30" height="80" s:generic="body" class="cell_pe11"/>
    <g transform="translate(0,10)" s:x="0" s:y="10" s:pid="in0" id="port_pe11~a">
      <text x="-3" y="-4" class="inputPortLabel cell_pe11">a</text>
    </g>
    <g transform="translate(0,30)" s:x="0" s:y="10" s:pid="in0" id="port_pe11~b">
      <text x="-3" y="-4" class="inputPortLabel cell_pe11">b</text>
    </g>
    <g transform="translate(0,50)" s:x="0" s:y="10" s:pid="in0" id="port_pe11~clk">
      <text x="-3" y="-4" class="inputPortLabel cell_pe11">clk</text>
    </g>
    <g transform="translate(0,70)" s:x="0" s:y="10" s:pid="in0" id="port_pe11~rst_n">
      <text x="-3" y="-4" class="inputPortLabel cell_pe11">rst_n</text>
    </g>
    <g transform="translate(30,10)" s:x="30" s:y="10" s:pid="out0" id="port_pe11~a_p">
      <text x="5" y="-4" style="fill:#000; stroke:none" class="cell_pe11">a_p</text>
    </g>
    <g transform="translate(30,30)" s:x="30" s:y="10" s:pid="out0" id="port_pe11~b_p">
      <text x="5" y="-4" style="fill:#000; stroke:none" class="cell_pe11">b_p</text>
    </g>
    <g transform="translate(30,50)" s:x="30" s:y="10" s:pid="out0" id="port_pe11~c">
      <text x="5" y="-4" style="fill:#000; stroke:none" class="cell_pe11">c</text>
    </g>
  </g>
  <g s:type="inputExt" transform="translate(142,797.5)" s:width="30" s:height="20" id="cell_clk">
    <text x="15" y="-4" class="nodelabel cell_clk" s:attribute="ref">clk</text>
    <s:alias val="$_inputExt_"/>
    <path d="M0,0 L0,20 L15,20 L30,10 L15,0 Z" class="cell_clk"/>
    <g s:x="28" s:y="10" s:pid="Y"/>
  </g>
  <g s:type="inputExt" transform="translate(77,817.5)" s:width="30" s:height="20" id="cell_rst_n">
    <text x="15" y="-4" class="nodelabel cell_rst_n" s:attribute="ref">rst_n</text>
    <s:alias val="$_inputExt_"/>
    <path d="M0,0 L0,20 L15,20 L30,10 L15,0 Z" class="cell_rst_n"/>
    <g s:x="28" s:y="10" s:pid="Y"/>
  </g>
  <g s:type="inputExt" transform="translate(272,457)" s:width="30" s:height="20" id="cell_a00">
    <text x="15" y="-4" class="nodelabel cell_a00" s:attribute="ref">a00</text>
    <s:alias val="$_inputExt_"/>
    <path d="M0,0 L0,20 L15,20 L30,10 L15,0 Z" class="cell_a00"/>
    <g s:x="28" s:y="10" s:pid="Y"/>
  </g>
  <g s:type="inputExt" transform="translate(272,601.5)" s:width="30" s:height="20" id="cell_a01">
    <text x="15" y="-4" class="nodelabel cell_a01" s:attribute="ref">a01</text>
    <s:alias val="$_inputExt_"/>
    <path d="M0,0 L0,20 L15,20 L30,10 L15,0 Z" class="cell_a01"/>
    <g s:x="28" s:y="10" s:pid="Y"/>
  </g>
  <g s:type="inputExt" transform="translate(352,334.5)" s:width="30" s:height="20" id="cell_a10">
    <text x="15" y="-4" class="nodelabel cell_a10" s:attribute="ref">a10</text>
    <s:alias val="$_inputExt_"/>
    <path d="M0,0 L0,20 L15,20 L30,10 L15,0 Z" class="cell_a10"/>
    <g s:x="28" s:y="10" s:pid="Y"/>
  </g>
  <g s:type="inputExt" transform="translate(352,399.5)" s:width="30" s:height="20" id="cell_a11">
    <text x="15" y="-4" class="nodelabel cell_a11" s:attribute="ref">a11</text>
    <s:alias val="$_inputExt_"/>
    <path d="M0,0 L0,20 L15,20 L30,10 L15,0 Z" class="cell_a11"/>
    <g s:x="28" s:y="10" s:pid="Y"/>
  </g>
  <g s:type="inputExt" transform="translate(272,712.5)" s:width="30" s:height="20" id="cell_b00">
    <text x="15" y="-4" class="nodelabel cell_b00" s:attribute="ref">b00</text>
    <s:alias val="$_inputExt_"/>
    <path d="M0,0 L0,20 L15,20 L30,10 L15,0 Z" class="cell_b00"/>
    <g s:x="28" s:y="10" s:pid="Y"/>
  </g>
  <g s:type="inputExt" transform="translate(352,139.5)" s:width="30" s:height="20" id="cell_b01">
    <text x="15" y="-4" class="nodelabel cell_b01" s:attribute="ref">b01</text>
    <s:alias val="$_inputExt_"/>
    <path d="M0,0 L0,20 L15,20 L30,10 L15,0 Z" class="cell_b01"/>
    <g s:x="28" s:y="10" s:pid="Y"/>
  </g>
  <g s:type="inputExt" transform="translate(272,777.5)" s:width="30" s:height="20" id="cell_b10">
    <text x="15" y="-4" class="nodelabel cell_b10" s:attribute="ref">b10</text>
    <s:alias val="$_inputExt_"/>
    <path d="M0,0 L0,20 L15,20 L30,10 L15,0 Z" class="cell_b10"/>
    <g s:x="28" s:y="10" s:pid="Y"/>
  </g>
  <g s:type="inputExt" transform="translate(352,204.5)" s:width="30" s:height="20" id="cell_b11">
    <text x="15" y="-4" class="nodelabel cell_b11" s:attribute="ref">b11</text>
    <s:alias val="$_inputExt_"/>
    <path d="M0,0 L0,20 L15,20 L30,10 L15,0 Z" class="cell_b11"/>
    <g s:x="28" s:y="10" s:pid="Y"/>
  </g>
  <g s:type="outputExt" transform="translate(860,681.5)" s:width="30" s:height="20" id="cell_c00">
    <text x="15" y="-4" class="nodelabel cell_c00" s:attribute="ref">c00</text>
    <s:alias val="$_outputExt_"/>
    <path d="M30,0 L30,20 L15,20 L0,10 L15,0 Z" class="cell_c00"/>
    <g s:x="0" s:y="10" s:pid="A"/>
  </g>
  <g s:type="outputExt" transform="translate(860,62.5)" s:width="30" s:height="20" id="cell_c01">
    <text x="15" y="-4" class="nodelabel cell_c01" s:attribute="ref">c01</text>
    <s:alias val="$_outputExt_"/>
    <path d="M30,0 L30,20 L15,20 L0,10 L15,0 Z" class="cell_c01"/>
    <g s:x="0" s:y="10" s:pid="A"/>
  </g>
  <g s:type="outputExt" transform="translate(860,319.5)" s:width="30" s:height="20" id="cell_c10">
    <text x="15" y="-4" class="nodelabel cell_c10" s:attribute="ref">c10</text>
    <s:alias val="$_outputExt_"/>
    <path d="M30,0 L30,20 L15,20 L0,10 L15,0 Z" class="cell_c10"/>
    <g s:x="0" s:y="10" s:pid="A"/>
  </g>
  <g s:type="outputExt" transform="translate(860,391)" s:width="30" s:height="20" id="cell_c11">
    <text x="15" y="-4" class="nodelabel cell_c11" s:attribute="ref">c11</text>
    <s:alias val="$_outputExt_"/>
    <path d="M30,0 L30,20 L15,20 L0,10 L15,0 Z" class="cell_c11"/>
    <g s:x="0" s:y="10" s:pid="A"/>
  </g>
  <g s:type="constant" transform="translate(12,581.5)" s:width="30" s:height="20" id="cell_1">
    <text x="15" y="-4" class="nodelabel cell_1" s:attribute="ref">1</text>
    <s:alias val="$_constant_"/>
    <rect width="30" height="20" class="cell_1"/>
    <g s:x="30" s:y="10" s:pid="Y"/>
  </g>
  <g s:type="constant" transform="translate(352,269.5)" s:width="30" s:height="20" id="cell_0000">
    <text x="15" y="-4" class="nodelabel cell_0000" s:attribute="ref">0x0</text>
    <s:alias val="$_constant_"/>
    <rect width="30" height="20" class="cell_0000"/>
    <g s:x="30" s:y="10" s:pid="Y"/>
  </g>
  <g s:type="constant" transform="translate(272,86)" s:width="30" s:height="20" id="cell_11">
    <text x="15" y="-4" class="nodelabel cell_11" s:attribute="ref">11</text>
    <s:alias val="$_constant_"/>
    <rect width="30" height="20" class="cell_11"/>
    <g s:x="30" s:y="10" s:pid="Y"/>
  </g>
  <g s:type="constant" transform="translate(207,611.5)" s:width="30" s:height="20" id="cell_10">
    <text x="15" y="-4" class="nodelabel cell_10" s:attribute="ref">10</text>
    <s:alias val="$_constant_"/>
    <rect width="30" height="20" class="cell_10"/>
    <g s:x="30" s:y="10" s:pid="Y"/>
  </g>
  <g s:type="constant" transform="translate(77,516.5)" s:width="30" s:height="20" id="cell_000">
    <text x="15" y="-4" class="nodelabel cell_000" s:attribute="ref">000</text>
    <s:alias val="$_constant_"/>
    <rect width="30" height="20" class="cell_000"/>
    <g s:x="30" s:y="10" s:pid="Y"/>
  </g>
  <g s:type="join" transform="translate(441,334)" s:width="4" s:height="40" id="cell_$join$,12,13,14,15,16,17,18,19,">
    <rect width="5" height="40" class="splitjoinBody" s:generic="body"/>
    <s:alias val="$_join_"/>
    <g s:x="5" s:y="20" s:pid="out"/>
    <g transform="translate(0,10)" s:x="0" s:y="10" s:pid="in0">
      <text x="-3" y="-4" class="inputPortLabel">0:3</text>
    </g>
    <g transform="translate(0,30)" s:x="0" s:y="10" s:pid="in0">
      <text x="-3" y="-4" class="inputPortLabel">4:7</text>
    </g>
  </g>
  <g s:type="join" transform="translate(435.3333333333333,62)" s:width="4" s:height="40" id="cell_$join$,81,82,">
    <rect width="5" height="40" class="splitjoinBody" s:generic="body"/>
    <s:alias val="$_join_"/>
    <g s:x="5" s:y="20" s:pid="out"/>
    <g transform="translate(0,10)" s:x="0" s:y="10" s:pid="in0">
      <text x="-3" y="-4" class="inputPortLabel">0</text>
    </g>
    <g transform="translate(0,30)" s:x="0" s:y="10" s:pid="in0">
      <text x="-3" y="-4" class="inputPortLabel">1</text>
    </g>
  </g>
  <g s:type="join" transform="translate(441,139)" s:width="4" s:height="40" id="cell_$join$,24,25,26,27,32,33,34,35,">
    <rect width="5" height="40" class="splitjoinBody" s:generic="body"/>
    <s:alias val="$_join_"/>
    <g s:x="5" s:y="20" s:pid="out"/>
    <g transform="translate(0,10)" s:x="0" s:y="10" s:pid="in0">
      <text x="-3" y="-4" class="inputPortLabel">0:3</text>
    </g>
    <g transform="translate(0,30)" s:x="0" s:y="10" s:pid="in0">
      <text x="-3" y="-4" class="inputPortLabel">4:7</text>
    </g>
  </g>
  <g s:type="join" transform="translate(371,456.5)" s:width="4" s:height="40" id="cell_$join$,4,5,6,7,8,9,10,11,">
    <rect width="5" height="40" class="splitjoinBody" s:generic="body"/>
    <s:alias val="$_join_"/>
    <g s:x="5" s:y="20" s:pid="out"/>
    <g transform="translate(0,10)" s:x="0" s:y="10" s:pid="in0">
      <text x="-3" y="-4" class="inputPortLabel">0:3</text>
    </g>
    <g transform="translate(0,30)" s:x="0" s:y="10" s:pid="in0">
      <text x="-3" y="-4" class="inputPortLabel">4:7</text>
    </g>
  </g>
  <g s:type="join" transform="translate(367,533.5)" s:width="4" s:height="40" id="cell_$join$,82,91,">
    <rect width="5" height="40" class="splitjoinBody" s:generic="body"/>
    <s:alias val="$_join_"/>
    <g s:x="5" s:y="20" s:pid="out"/>
    <g transform="translate(0,10)" s:x="0" s:y="10" s:pid="in0">
      <text x="-3" y="-4" class="inputPortLabel">0</text>
    </g>
    <g transform="translate(0,30)" s:x="0" s:y="10" s:pid="in0">
      <text x="-3" y="-4" class="inputPortLabel">1</text>
    </g>
  </g>
  <g s:type="join" transform="translate(371,712)" s:width="4" s:height="40" id="cell_$join$,20,21,22,23,28,29,30,31,">
    <rect width="5" height="40" class="splitjoinBody" s:generic="body"/>
    <s:alias val="$_join_"/>
    <g s:x="5" s:y="20" s:pid="out"/>
    <g transform="translate(0,10)" s:x="0" s:y="10" s:pid="in0">
      <text x="-3" y="-4" class="inputPortLabel">0:3</text>
    </g>
    <g transform="translate(0,30)" s:x="0" s:y="10" s:pid="in0">
      <text x="-3" y="-4" class="inputPortLabel">4:7</text>
    </g>
  </g>
  <line x1="237" x2="257" y1="536.5" y2="536.5" class="net_72,73,74"/>
  <line x1="257" x2="257" y1="536.5" y2="496.5" class="net_72,73,74"/>
  <line x1="257" x2="52" y1="496.5" y2="496.5" class="net_72,73,74"/>
  <line x1="52" x2="52" y1="496.5" y2="576.5" class="net_72,73,74"/>
  <circle cx="257" cy="496.5" r="2" style="fill:#000" class="net_72,73,74"/>
  <circle cx="257" cy="536.5" r="2" style="fill:#000" class="net_72,73,74"/>
  <line x1="52" x2="83.33333333333333" y1="576.5" y2="576.5" class="net_72,73,74"/>
  <line x1="237" x2="257" y1="536.5" y2="536.5" class="net_72,73,74"/>
  <line x1="257" x2="257" y1="536.5" y2="65" class="net_72,73,74"/>
  <line x1="257" x2="360" y1="65" y2="65" class="net_72,73,74"/>
  <line x1="237" x2="276.6666666666667" y1="536.5" y2="536.5" class="net_72,73,74"/>
  <line x1="237" x2="257" y1="536.5" y2="536.5" class="net_72,73,74"/>
  <line x1="257" x2="257" y1="536.5" y2="661.5" class="net_72,73,74"/>
  <line x1="257" x2="276.6666666666667" y1="661.5" y2="661.5" class="net_72,73,74"/>
  <line x1="42" x2="83.33333333333333" y1="591.5" y2="591.5" class="net_132"/>
  <line x1="42" x2="52" y1="591.5" y2="591.5" class="net_132"/>
  <line x1="52" x2="52" y1="591.5" y2="676.5" class="net_132"/>
  <circle cx="52" cy="591.5" r="2" style="fill:#000" class="net_132"/>
  <line x1="52" x2="276.6666666666667" y1="676.5" y2="676.5" class="net_132"/>
  <line x1="170" x2="182" y1="807.5" y2="807.5" class="net_2"/>
  <line x1="182" x2="182" y1="807.5" y2="556.5" class="net_2"/>
  <circle cx="182" cy="807.5" r="2" style="fill:#000" class="net_2"/>
  <line x1="182" x2="207" y1="556.5" y2="556.5" class="net_2"/>
  <line x1="170" x2="412" y1="807.5" y2="807.5" class="net_2"/>
  <line x1="412" x2="412" y1="807.5" y2="691.5" class="net_2"/>
  <line x1="412" x2="518" y1="691.5" y2="691.5" class="net_2"/>
  <line x1="170" x2="247" y1="807.5" y2="807.5" class="net_2"/>
  <line x1="247" x2="247" y1="807.5" y2="691.5" class="net_2"/>
  <line x1="247" x2="467" y1="691.5" y2="691.5" class="net_2"/>
  <line x1="467" x2="467" y1="691.5" y2="329.5" class="net_2"/>
  <line x1="467" x2="578" y1="329.5" y2="329.5" class="net_2"/>
  <line x1="578" x2="578" y1="329.5" y2="72.5" class="net_2"/>
  <circle cx="247" cy="807.5" r="2" style="fill:#000" class="net_2"/>
  <circle cx="467" cy="691.5" r="2" style="fill:#000" class="net_2"/>
  <line x1="578" x2="659" y1="72.5" y2="72.5" class="net_2"/>
  <line x1="170" x2="412" y1="807.5" y2="807.5" class="net_2"/>
  <line x1="412" x2="412" y1="807.5" y2="691.5" class="net_2"/>
  <line x1="412" x2="467" y1="691.5" y2="691.5" class="net_2"/>
  <line x1="467" x2="467" y1="691.5" y2="734" class="net_2"/>
  <line x1="467" x2="618" y1="734" y2="734" class="net_2"/>
  <line x1="618" x2="618" y1="734" y2="329.5" class="net_2"/>
  <circle cx="412" cy="691.5" r="2" style="fill:#000" class="net_2"/>
  <circle cx="618" cy="734" r="2" style="fill:#000" class="net_2"/>
  <line x1="618" x2="659" y1="329.5" y2="329.5" class="net_2"/>
  <line x1="170" x2="412" y1="807.5" y2="807.5" class="net_2"/>
  <line x1="412" x2="412" y1="807.5" y2="691.5" class="net_2"/>
  <line x1="412" x2="467" y1="691.5" y2="691.5" class="net_2"/>
  <line x1="467" x2="467" y1="691.5" y2="734" class="net_2"/>
  <line x1="467" x2="719" y1="734" y2="734" class="net_2"/>
  <line x1="719" x2="719" y1="734" y2="401" class="net_2"/>
  <line x1="719" x2="775" y1="401" y2="401" class="net_2"/>
  <line x1="165.33333333333334" x2="207" y1="536.5" y2="536.5" class="net_78,79,80"/>
  <line x1="382" x2="517.6666666666667" y1="279.5" y2="279.5" class="net_133,134,135,136"/>
  <line x1="382" x2="467" y1="279.5" y2="279.5" class="net_133,134,135,136"/>
  <line x1="467" x2="467" y1="279.5" y2="42.5" class="net_133,134,135,136"/>
  <circle cx="467" cy="279.5" r="2" style="fill:#000" class="net_133,134,135,136"/>
  <line x1="467" x2="517.6666666666667" y1="42.5" y2="42.5" class="net_133,134,135,136"/>
  <line x1="382" x2="402" y1="279.5" y2="279.5" class="net_133,134,135,136"/>
  <line x1="402" x2="402" y1="279.5" y2="457" class="net_133,134,135,136"/>
  <circle cx="402" cy="279.5" r="2" style="fill:#000" class="net_133,134,135,136"/>
  <circle cx="402" cy="457" r="2" style="fill:#000" class="net_133,134,135,136"/>
  <line x1="402" x2="427" y1="457" y2="457" class="net_133,134,135,136"/>
  <line x1="382" x2="402" y1="279.5" y2="279.5" class="net_133,134,135,136"/>
  <line x1="402" x2="402" y1="279.5" y2="574" class="net_133,134,135,136"/>
  <line x1="402" x2="427" y1="574" y2="574" class="net_133,134,135,136"/>
  <line x1="447" x2="457" y1="354.5" y2="354.5" class="net_12,13,14,15,16,17,18,19"/>
  <line x1="457" x2="457" y1="354.5" y2="299.5" class="net_12,13,14,15,16,17,18,19"/>
  <line x1="457" x2="517.6666666666667" y1="299.5" y2="299.5" class="net_12,13,14,15,16,17,18,19"/>
  <line x1="441.3333333333333" x2="477" y1="82.5" y2="82.5" class="net_81,82"/>
  <line x1="477" x2="477" y1="82.5" y2="319.5" class="net_81,82"/>
  <line x1="477" x2="527.6666666666667" y1="319.5" y2="319.5" class="net_81,82"/>
  <circle cx="477" cy="82.5" r="2" style="fill:#000" class="net_81,82"/>
  <line x1="527.6666666666667" x2="527.6666666666667" y1="319.5" y2="304.5" class="net_81,82"/>
  <line x1="441.3333333333333" x2="527.6666666666667" y1="82.5" y2="82.5" class="net_81,82"/>
  <line x1="527.6666666666667" x2="527.6666666666667" y1="82.5" y2="67.5" class="net_81,82"/>
  <line x1="302" x2="312" y1="96" y2="96" class="net_137,138"/>
  <line x1="312" x2="312" y1="96" y2="80" class="net_137,138"/>
  <line x1="312" x2="360" y1="80" y2="80" class="net_137,138"/>
  <line x1="237" x2="247" y1="621.5" y2="621.5" class="net_139,140"/>
  <line x1="247" x2="247" y1="621.5" y2="551.5" class="net_139,140"/>
  <line x1="247" x2="276.6666666666667" y1="551.5" y2="551.5" class="net_139,140"/>
  <line x1="447" x2="457" y1="159.5" y2="159.5" class="net_24,25,26,27,32,33,34,35"/>
  <line x1="457" x2="457" y1="159.5" y2="62.5" class="net_24,25,26,27,32,33,34,35"/>
  <line x1="457" x2="517.6666666666667" y1="62.5" y2="62.5" class="net_24,25,26,27,32,33,34,35"/>
  <line x1="377" x2="427" y1="477" y2="477" class="net_4,5,6,7,8,9,10,11"/>
  <line x1="373" x2="437" y1="554" y2="554" class="net_82,91"/>
  <line x1="437" x2="437" y1="554" y2="482" class="net_82,91"/>
  <line x1="373" x2="392" y1="554" y2="554" class="net_82,91"/>
  <line x1="392" x2="392" y1="554" y2="614" class="net_82,91"/>
  <line x1="392" x2="437" y1="614" y2="614" class="net_82,91"/>
  <circle cx="392" cy="554" r="2" style="fill:#000" class="net_82,91"/>
  <line x1="437" x2="437" y1="614" y2="599" class="net_82,91"/>
  <line x1="377" x2="402" y1="732.5" y2="732.5" class="net_20,21,22,23,28,29,30,31"/>
  <line x1="402" x2="402" y1="732.5" y2="594" class="net_20,21,22,23,28,29,30,31"/>
  <line x1="402" x2="427" y1="594" y2="594" class="net_20,21,22,23,28,29,30,31"/>
  <line x1="107" x2="145.33333333333334" y1="526.5" y2="526.5" class="net_154,155,156"/>
  <line x1="105.33333333333333" x2="117" y1="584" y2="584" class="net_75,76,77"/>
  <line x1="117" x2="117" y1="584" y2="546.5" class="net_75,76,77"/>
  <line x1="117" x2="145.33333333333334" y1="546.5" y2="546.5" class="net_75,76,77"/>
  <line x1="105" x2="117" y1="827.5" y2="827.5" class="net_3"/>
  <line x1="117" x2="117" y1="827.5" y2="777.5" class="net_3"/>
  <line x1="117" x2="155.33333333333334" y1="777.5" y2="777.5" class="net_3"/>
  <circle cx="117" cy="827.5" r="2" style="fill:#000" class="net_3"/>
  <line x1="155.33333333333334" x2="155.33333333333334" y1="777.5" y2="551.5" class="net_3"/>
  <line x1="105" x2="457" y1="827.5" y2="827.5" class="net_3"/>
  <line x1="457" x2="457" y1="827.5" y2="711.5" class="net_3"/>
  <circle cx="457" cy="827.5" r="2" style="fill:#000" class="net_3"/>
  <line x1="457" x2="518" y1="711.5" y2="711.5" class="net_3"/>
  <line x1="105" x2="608" y1="827.5" y2="827.5" class="net_3"/>
  <line x1="608" x2="608" y1="827.5" y2="92.5" class="net_3"/>
  <line x1="608" x2="659" y1="92.5" y2="92.5" class="net_3"/>
  <line x1="105" x2="608" y1="827.5" y2="827.5" class="net_3"/>
  <line x1="608" x2="608" y1="827.5" y2="349.5" class="net_3"/>
  <circle cx="608" cy="349.5" r="2" style="fill:#000" class="net_3"/>
  <line x1="608" x2="659" y1="349.5" y2="349.5" class="net_3"/>
  <line x1="105" x2="608" y1="827.5" y2="827.5" class="net_3"/>
  <line x1="608" x2="608" y1="827.5" y2="745" class="net_3"/>
  <line x1="608" x2="729" y1="745" y2="745" class="net_3"/>
  <line x1="729" x2="729" y1="745" y2="421" class="net_3"/>
  <circle cx="608" cy="745" r="2" style="fill:#000" class="net_3"/>
  <line x1="729" x2="775" y1="421" y2="421" class="net_3"/>
  <line x1="447" x2="477" y1="467" y2="467" class="net_92,93,94,95"/>
  <line x1="477" x2="477" y1="467" y2="651.5" class="net_92,93,94,95"/>
  <line x1="477" x2="518" y1="651.5" y2="651.5" class="net_92,93,94,95"/>
  <line x1="447" x2="457" y1="584" y2="584" class="net_96,97,98,99"/>
  <line x1="457" x2="457" y1="584" y2="671.5" class="net_96,97,98,99"/>
  <line x1="457" x2="518" y1="671.5" y2="671.5" class="net_96,97,98,99"/>
  <line x1="549" x2="588" y1="651.5" y2="651.5" class="net_100,101,102,103"/>
  <line x1="588" x2="588" y1="651.5" y2="32.5" class="net_100,101,102,103"/>
  <line x1="588" x2="659" y1="32.5" y2="32.5" class="net_100,101,102,103"/>
  <line x1="537.6666666666667" x2="659" y1="52.5" y2="52.5" class="net_87,88,89,90"/>
  <line x1="537.6666666666667" x2="659" y1="289.5" y2="289.5" class="net_83,84,85,86"/>
  <line x1="549" x2="598" y1="671.5" y2="671.5" class="net_104,105,106,107"/>
  <line x1="598" x2="598" y1="671.5" y2="309.5" class="net_104,105,106,107"/>
  <line x1="598" x2="659" y1="309.5" y2="309.5" class="net_104,105,106,107"/>
  <line x1="690" x2="719" y1="289.5" y2="289.5" class="net_116,117,118,119"/>
  <line x1="719" x2="719" y1="289.5" y2="361" class="net_116,117,118,119"/>
  <line x1="719" x2="775" y1="361" y2="361" class="net_116,117,118,119"/>
  <line x1="690" x2="729" y1="52.5" y2="52.5" class="net_112,113,114,115"/>
  <line x1="729" x2="729" y1="52.5" y2="381" class="net_112,113,114,115"/>
  <line x1="729" x2="775" y1="381" y2="381" class="net_112,113,114,115"/>
  <line x1="549" x2="860" y1="691.5" y2="691.5" class="net_36,37,38,39,40,41,42,43,44"/>
  <line x1="690" x2="860" y1="72.5" y2="72.5" class="net_45,46,47,48,49,50,51,52,53"/>
  <line x1="690" x2="860" y1="329.5" y2="329.5" class="net_54,55,56,57,58,59,60,61,62"/>
  <line x1="806" x2="860" y1="401" y2="401" class="net_63,64,65,66,67,68,69,70,71"/>
  <line x1="380" x2="441" y1="344.5" y2="344.5" class="net_12,13,14,15"/>
  <line x1="380" x2="392" y1="409.5" y2="409.5" class="net_16,17,18,19"/>
  <line x1="392" x2="392" y1="409.5" y2="364.5" class="net_16,17,18,19"/>
  <line x1="392" x2="441" y1="364.5" y2="364.5" class="net_16,17,18,19"/>
  <line x1="382" x2="435.3333333333333" y1="72.5" y2="72.5" class="net_81"/>
  <line x1="298.6666666666667" x2="322" y1="544" y2="544" class="net_82"/>
  <line x1="322" x2="322" y1="544" y2="95" class="net_82"/>
  <line x1="322" x2="392" y1="95" y2="95" class="net_82"/>
  <line x1="392" x2="392" y1="95" y2="92.5" class="net_82"/>
  <circle cx="322" cy="544" r="2" style="fill:#000" class="net_82"/>
  <line x1="392" x2="435.3333333333333" y1="92.5" y2="92.5" class="net_82"/>
  <line x1="298.6666666666667" x2="367" y1="544" y2="544" class="net_82"/>
  <line x1="380" x2="441" y1="149.5" y2="149.5" class="net_24,25,26,27"/>
  <line x1="380" x2="392" y1="214.5" y2="214.5" class="net_32,33,34,35"/>
  <line x1="392" x2="392" y1="214.5" y2="169.5" class="net_32,33,34,35"/>
  <line x1="392" x2="441" y1="169.5" y2="169.5" class="net_32,33,34,35"/>
  <line x1="300" x2="371" y1="467" y2="467" class="net_4,5,6,7"/>
  <line x1="300" x2="332" y1="611.5" y2="611.5" class="net_8,9,10,11"/>
  <line x1="332" x2="332" y1="611.5" y2="487" class="net_8,9,10,11"/>
  <line x1="332" x2="371" y1="487" y2="487" class="net_8,9,10,11"/>
  <line x1="298.6666666666667" x2="342" y1="669" y2="669" class="net_91"/>
  <line x1="342" x2="342" y1="669" y2="564" class="net_91"/>
  <line x1="342" x2="367" y1="564" y2="564" class="net_91"/>
  <line x1="300" x2="371" y1="722.5" y2="722.5" class="net_20,21,22,23"/>
  <line x1="300" x2="312" y1="787.5" y2="787.5" class="net_28,29,30,31"/>
  <line x1="312" x2="312" y1="787.5" y2="742.5" class="net_28,29,30,31"/>
  <line x1="312" x2="371" y1="742.5" y2="742.5" class="net_28,29,30,31"/>
</svg>
