<svg xmlns="http://www.w3.org/2000/svg" viewBox="0 0 380 220">
  <rect x="100" y="20" width="180" height="180" fill="#fcf5a3" stroke="black" stroke-width="3"/>
  <line x1="85" y1="50" x2="100" y2="50" stroke="black" stroke-width="4"/>
  <text x="110" y="55" font-family="sans-serif" font-size="16">clk</text>
  <line x1="85" y1="75" x2="100" y2="75" stroke="black" stroke-width="4"/>
  <text x="110" y="80" font-family="sans-serif" font-size="16">rst_n</text>
  <line x1="85" y1="100" x2="100" y2="100" stroke="black" stroke-width="4"/>
  <text x="80" y="104" font-family="monospace" font-size="14" text-anchor="end">[7:0]</text>
  <text x="110" y="105" font-family="sans-serif" font-size="16">SW</text>
  <line x1="280" y1="50" x2="295" y2="50" stroke="black" stroke-width="4"/>
  <text x="270" y="55" font-family="sans-serif" font-size="16" text-anchor="end">hsync</text>
  <line x1="280" y1="75" x2="295" y2="75" stroke="black" stroke-width="4"/>
  <text x="270" y="80" font-family="sans-serif" font-size="16" text-anchor="end">vsync</text>
  <line x1="280" y1="100" x2="295" y2="100" stroke="black" stroke-width="4"/>
  <text x="270" y="105" font-family="sans-serif" font-size="16" text-anchor="end">video_active</text>
  <line x1="280" y1="125" x2="295" y2="125" stroke="black" stroke-width="4"/>
  <text x="300" y="129" font-family="monospace" font-size="14" text-anchor="start">[1:0]</text>
  <text x="270" y="130" font-family="sans-serif" font-size="16" text-anchor="end">r</text>
  <line x1="280" y1="150" x2="295" y2="150" stroke="black" stroke-width="4"/>
  <text x="300" y="154" font-family="monospace" font-size="14" text-anchor="start">[1:0]</text>
  <text x="270" y="155" font-family="sans-serif" font-size="16" text-anchor="end">g</text>
  <line x1="280" y1="175" x2="295" y2="175" stroke="black" stroke-width="4"/>
  <text x="300" y="179" font-family="monospace" font-size="14" text-anchor="start">[1:0]</text>
  <text x="270" y="180" font-family="sans-serif" font-size="16" text-anchor="end">b</text>
</svg>